<?xml version="1.0" standalone="no"?><!DOCTYPE svg PUBLIC "-//W3C//DTD SVG 1.1//EN" "http://www.w3.org/Graphics/SVG/1.1/DTD/svg11.dtd"><svg t="1567699122578" class="icon" viewBox="0 0 1024 1024" version="1.1" xmlns="http://www.w3.org/2000/svg" p-id="2054" xmlns:xlink="http://www.w3.org/1999/xlink" width="200" height="200"><defs><style type="text/css"></style></defs><path d="M512 34.133333a486.4 486.4 0 1 0 486.4 486.4A486.4 486.4 0 0 0 512 34.133333z m288.580267 332.552534l-324.266667 347.426133a45.866667 45.866667 0 0 1-64.9216 2.6112 20.334933 20.334933 0 0 1-1.518933-1.518933l-185.258667-185.233067a46.344533 46.344533 0 0 1 65.3568-65.3568l152.541867 151.3472 290.423466-312.2432a46.293333 46.293333 0 1 1 71.68 58.632533 37.0944 37.0944 0 0 1-4.0192 4.343467z m0 0" p-id="2055"></path></svg>