<?xml version="1.0" standalone="no"?><!DOCTYPE svg PUBLIC "-//W3C//DTD SVG 1.1//EN" "http://www.w3.org/Graphics/SVG/1.1/DTD/svg11.dtd"><svg t="1575444416937" class="icon" viewBox="0 0 1024 1024" version="1.1" xmlns="http://www.w3.org/2000/svg" p-id="2094" xmlns:xlink="http://www.w3.org/1999/xlink" width="200" height="200"><defs><style type="text/css"></style></defs><path d="M768 298.666667V128a42.666667 42.666667 0 0 0-42.666667-42.666667H298.666667a42.666667 42.666667 0 0 0-42.666667 42.666667v170.666667a42.666667 42.666667 0 0 0 42.666667 42.666666v153.002667l-72.832 72.832A42.496 42.496 0 0 0 213.333333 597.333333v85.333334a42.666667 42.666667 0 0 0 42.666667 42.666666h213.333333v128l42.666667 85.333334 42.666667-85.333334v-128h213.333333a42.666667 42.666667 0 0 0 42.666667-42.666666v-85.333334a42.496 42.496 0 0 0-12.501334-30.165333L725.333333 494.336V341.333333a42.666667 42.666667 0 0 0 42.666667-42.666666zM341.333333 170.666667h341.333334v85.333333H341.333333V170.666667z m311.168 371.498666L725.333333 614.997333V640H298.666667v-25.002667l72.832-72.832A42.496 42.496 0 0 0 384 512V341.333333h256v170.666667c0 11.349333 4.48 22.186667 12.501333 30.165333z" p-id="2095"></path></svg>