<?xml version="1.0" standalone="no"?><!DOCTYPE svg PUBLIC "-//W3C//DTD SVG 1.1//EN" "http://www.w3.org/Graphics/SVG/1.1/DTD/svg11.dtd"><svg t="1568212380904" class="icon" viewBox="0 0 1024 1024" version="1.1" xmlns="http://www.w3.org/2000/svg" p-id="1121" xmlns:xlink="http://www.w3.org/1999/xlink" width="200" height="200"><defs><style type="text/css"></style></defs><path d="M409.6 870.4c0-21.0944 6.4-40.6528 17.3568-56.9856A102.5536 102.5536 0 0 1 358.4 716.8c0-21.0944 6.4-40.6528 17.3568-56.9856A102.5536 102.5536 0 0 1 307.2 563.2c0-18.6368 5.0176-36.1472 13.7728-51.2H153.6c-56.4736 0-102.4-45.9264-102.4-102.4s45.9264-102.4 102.4-102.4h377.4976L411.648 238.2848a99.6864 99.6864 0 0 1-48.7936-61.3888 95.5392 95.5392 0 0 1 10.3424-74.8544c27.8528-46.4384 90.8288-64.1536 140.3904-39.424 3.1232 1.536 70.0416 34.2016 273.92 136.192 96 48.0256 164.6592 100.7104 203.9808 156.6208 30.8736 43.8784 32.4608 74.1888 32.4608 79.8208v256c0 43.4176-12.544 83.5584-37.376 119.3472-23.9616 34.6112-58.9824 64.4608-104.0896 88.7808-89.2416 48.0768-217.3952 73.472-370.5344 73.472-56.4736 0-102.4-45.9264-102.4-102.4z m448.6656-16.128C910.5408 826.1632 972.8 775.0144 972.8 691.2V435.712c-0.1536-1.9968-2.56-23.552-26.88-56.064-24.2688-32.4096-75.3664-82.176-181.248-135.0656-207.5648-103.7824-272.9472-135.68-273.5616-135.9872l-0.2048-0.1024c-25.7536-12.8512-59.4944-3.7376-73.6768 19.9168a44.8512 44.8512 0 0 0-4.864 35.072 48.9472 48.9472 0 0 0 24.1664 30.0544l0.512 0.3072 138.496 79.9232c29.8496 16.3328 42.3936 34.7136 37.3248 54.6304-5.0688 19.968-25.0368 30.0544-59.2384 30.0544H153.6512c-28.2112 0-51.2 22.9888-51.2 51.2s22.9888 51.2 51.2 51.2h332.8a25.6 25.6 0 0 1 0 51.2h-76.8c-28.2112 0-51.2 22.9888-51.2 51.2s22.9888 51.2 51.2 51.2h76.8a25.6 25.6 0 0 1 0 51.2h-25.6c-28.2112 0-51.2 22.9888-51.2 51.2s22.9888 51.2 51.2 51.2h76.8a25.6 25.6 0 0 1 0 51.2h-25.6c-28.2112 0-51.2 22.9888-51.2 51.2s22.9888 51.2 51.2 51.2c144.6912 0 264.448-23.296 346.2656-67.328z" fill="" p-id="1122"></path></svg>