<?xml version="1.0" standalone="no"?><!DOCTYPE svg PUBLIC "-//W3C//DTD SVG 1.1//EN" "http://www.w3.org/Graphics/SVG/1.1/DTD/svg11.dtd"><svg t="1563421825634" class="icon" viewBox="0 0 1024 1024" version="1.1" xmlns="http://www.w3.org/2000/svg" p-id="1120" xmlns:xlink="http://www.w3.org/1999/xlink" width="200" height="200"><defs><style type="text/css"></style></defs><path d="M469.276966 263.500323c-7.009647 45.01524-54.695716 87.134523-60.109006 91.790566-3.868097 3.315512-8.606005 4.942569-13.323447 4.942569-5.761214 0-11.481496-2.415003-15.523555-7.111978-7.357572-8.565073-6.385431-21.479197 2.179642-28.847002 11.522428-9.956769 42.364877-41.454134 46.355771-67.067488 3.428076-22.001083-5.577019-31.364335-20.496823-46.867424-12.484336-12.96529-28.007891-29.113061-32.653701-54.798047-14.633279-80.974219 53.232388-133.889383 56.128345-136.099724 8.974395-6.866385 21.806655-5.14723 28.67304 3.827165 6.835685 8.953929 5.14723 21.75549-3.776 28.621874-0.317225 0.255827-13.579273 10.714016-25.101701 28.222785-14.57188 22.144346-19.841907 45.066405-15.666818 68.152193 2.435469 13.517875 11.010775 22.430872 21.868053 33.707706C454.756251 199.564152 475.826126 221.452671 469.276966 263.500323z" p-id="1121"></path><path d="M620.357893 263.500323c-7.019881 45.01524-54.695716 87.134523-60.109006 91.790566-3.868097 3.315512-8.606005 4.942569-13.33368 4.942569-5.750981 0-11.471262-2.415003-15.513322-7.111978-7.367805-8.565073-6.385431-21.479197 2.179642-28.847002 11.522428-9.956769 42.364877-41.454134 46.355771-67.067488 3.428076-22.001083-5.577019-31.364335-20.496823-46.867424-12.484336-12.96529-28.018124-29.113061-32.653701-54.798047-14.633279-80.974219 53.232388-133.889383 56.128345-136.099724 8.974395-6.866385 21.806655-5.14723 28.67304 3.827165 6.835685 8.953929 5.14723 21.75549-3.776 28.621874-0.317225 0.245593-13.579273 10.703783-25.101701 28.222785-14.57188 22.144346-19.841907 45.066405-15.677051 68.152193 2.445702 13.517875 11.021008 22.430872 21.878287 33.707706C605.837178 199.564152 626.907053 221.452671 620.357893 263.500323z" p-id="1122"></path><path d="M318.196039 263.500323c-7.009647 45.01524-54.695716 87.134523-60.109006 91.790566-3.857864 3.315512-8.606005 4.942569-13.323447 4.942569-5.761214 0-11.471262-2.415003-15.523555-7.111978-7.357572-8.565073-6.385431-21.479197 2.179642-28.847002 11.522428-9.956769 42.364877-41.454134 46.355771-67.067488 3.428076-22.001083-5.577019-31.364335-20.496823-46.867424-12.484336-12.96529-28.007891-29.113061-32.653701-54.798047-14.633279-80.974219 53.232388-133.889383 56.128345-136.099724 8.974395-6.866385 21.816888-5.14723 28.67304 3.827165 6.845918 8.953929 5.14723 21.75549-3.776 28.621874-0.317225 0.255827-13.579273 10.714016-25.101701 28.222785-14.57188 22.144346-19.841907 45.066405-15.666818 68.152193 2.435469 13.517875 11.010775 22.430872 21.868053 33.707706C303.675324 199.564152 324.745199 221.452671 318.196039 263.500323z" p-id="1123"></path><path d="M896.29241 468.008067c-31.169907 0-59.607586 11.880585-81.025385 31.354102l0-76.440973c0-11.307533-9.15859-20.466124-20.466124-20.466124l-736.780463 0c-11.307533 0-20.466124 9.15859-20.466124 20.466124l0 224.605477c0 62.431911 11.102872 118.457926 33.011858 166.543084 17.733896 38.936801 42.508139 72.685439 73.606415 100.304474 53.140291 47.174416 106.423845 60.057841 108.664885 60.58996 1.524726 0.358157 3.100618 0.542352 4.666276 0.542352l306.828131 0c1.2689 0 2.537799-0.122797 3.786233-0.358157 2.537799-0.480954 63.015196-12.238742 123.758652-57.970296 35.866882-26.994818 64.458057-60.272735 84.98558-98.912777 25.480324-47.962362 38.404682-104.10094 38.404682-166.860309l0-55.565527c0.849344-2.251274 1.320065-4.686742 1.320065-7.234775 0-43.940768 35.754319-79.695087 79.70532-79.695087 43.940768 0 79.695087 35.754319 79.695087 79.695087 0 43.951001-35.754319 79.70532-79.695087 79.70532-11.2973 0-20.455891 9.15859-20.455891 20.445658 0 11.2973 9.15859 20.455891 20.455891 20.455891 66.494437 0 120.596635-54.102199 120.596635-120.606869C1016.889045 522.110265 962.786847 468.008067 896.29241 468.008067zM774.334777 651.405003c0 55.57576-11.143805 104.950284-33.134655 146.731876-17.47807 33.236985-41.924855 61.950957-72.634274 85.35397-47.982828 36.56273-96.91733 48.934502-106.382912 51.083445l-302.028824 0c-9.260921-2.619664-48.811706-15.298428-88.802512-50.807153-26.810622-23.802102-48.187489-52.966329-63.537082-86.663802-19.463284-42.723034-29.327956-93.039-29.327956-149.576667l0-204.139354 695.848215 0L774.334777 651.405003z" p-id="1124"></path></svg>