<?xml version="1.0" standalone="no"?><!DOCTYPE svg PUBLIC "-//W3C//DTD SVG 1.1//EN" "http://www.w3.org/Graphics/SVG/1.1/DTD/svg11.dtd"><svg t="1563436415258" class="icon" viewBox="0 0 1024 1024" version="1.1" xmlns="http://www.w3.org/2000/svg" p-id="759" xmlns:xlink="http://www.w3.org/1999/xlink" width="200" height="200"><defs><style type="text/css"></style></defs><path d="M631.116242 115.34418H28.763301C14.665678 115.34418 3.13126 103.809762 3.13126 89.71214s11.534418-25.63204 25.632041-25.63204h602.352941c14.097622 0 25.63204 11.534418 25.63204 25.63204s-11.534418 25.63204-25.63204 25.63204z" fill="" p-id="760"></path><path d="M451.691961 1024c-3.844806 0-7.689612-1.281602-11.534418-2.563204-8.971214-5.126408-14.097622-14.097622-14.097622-24.350438l8.971214-170.453066c0-3.844806 1.281602-7.689612 2.563204-10.252816l287.078849-554.933667c6.40801-12.81602 21.787234-17.942428 34.603254-11.534419 12.81602 6.40801 17.942428 21.787234 11.534418 34.603255L485.013613 834.322904l-5.126408 106.372966 89.712141-73.051314 328.090112-634.392992-102.52816-52.545682c-6.40801-2.563204-10.252816-8.971214-12.81602-15.379224s-1.281602-14.097622 1.281602-19.22403l44.85607-87.148936C852.833388 11.534418 911.78708-11.534418 960.487956 10.252816c23.068836 10.252816 41.011264 29.476846 48.700876 52.545682 8.971214 24.350438 6.40801 52.545682-6.40801 76.89612l-48.700876 94.838548-342.187734 661.306634c-1.281602 2.563204-3.844806 6.40801-6.40801 7.689612l-138.413017 114.062578c-3.844806 3.844806-10.252816 6.40801-15.379224 6.40801z m389.607009-876.61577l80.740926 41.011264L959.206354 115.34418c6.40801-11.534418 7.689612-24.350438 2.563204-35.884856-3.844806-10.252816-11.534418-17.942428-21.787234-23.068836-23.068836-10.252816-53.827284 1.281602-65.361702 25.63204l-33.321652 65.361702z" fill="" p-id="761"></path><path d="M477.324001 410.112641H28.763301c-14.097622 0-25.63204-11.534418-25.632041-25.63204s11.534418-25.63204 25.632041-25.63204h448.5607c14.097622 0 25.63204 11.534418 25.63204 25.63204s-11.534418 25.63204-25.63204 25.63204z" fill="" p-id="762"></path><path d="M323.531761 704.881101H28.763301c-14.097622 0-25.63204-11.534418-25.632041-25.63204s11.534418-25.63204 25.632041-25.63204h294.76846c14.097622 0 25.63204 11.534418 25.63204 25.63204s-11.534418 25.63204-25.63204 25.63204z" fill="" p-id="763"></path></svg>